<svg width="255" height="84" viewBox="0 0 255 84" fill="none" xmlns="http://www.w3.org/2000/svg">
<path d="M242.71 62.5193H184.548C178.984 62.5193 173.645 60.4538 169.711 56.7809L166.666 53.9389C154.989 43.0368 139.145 36.918 122.636 36.918H0V58.2951H123.467C133.381 58.2951 142.896 61.9835 149.891 68.5372L154.532 72.8856C162.059 79.9363 172.289 83.8965 182.951 83.8965H198.754H242.984C249.447 83.8965 254.661 78.8958 254.429 72.8158C254.204 67.023 248.923 62.5193 242.71 62.5193Z" fill="#FAF7F5"/>
<path d="M237.385 26.6836H234.516C234.824 30.9544 235.098 35.2251 235.298 39.5037C235.814 45.2187 235.897 50.9882 234.217 56.5635H233.909C232.221 50.9804 232.304 45.2187 232.828 39.5037C233.019 35.2251 233.293 30.9544 233.601 26.6836H227.33C227.638 30.9544 227.912 35.2251 228.112 39.5037C228.628 45.2187 228.711 50.9882 227.031 56.5635H226.723C225.043 50.9804 225.118 45.2187 225.642 39.5037C225.833 35.2251 226.107 30.9544 226.423 26.6836H220.152C220.46 30.9544 220.735 35.2251 220.934 39.4959C221.45 45.211 221.533 50.9804 219.853 56.5557H219.545C217.857 50.9804 217.94 45.211 218.464 39.4959C218.655 35.2174 218.93 30.9466 219.238 26.6836H212.966C213.274 30.9544 213.549 35.2251 213.74 39.4959C214.256 45.211 214.339 50.9804 212.659 56.5557H212.351C210.663 50.9726 210.746 45.211 211.27 39.4959C211.461 35.2251 211.736 30.9466 212.052 26.6836H205.78C206.088 30.9544 206.363 35.2251 206.562 39.4959C207.078 45.211 207.161 50.9804 205.473 56.5557H205.165C203.477 50.9726 203.56 45.211 204.075 39.4959C204.267 35.2251 204.541 30.9544 204.857 26.6836H198.586C198.894 30.9544 199.168 35.2251 199.368 39.4959C199.884 45.211 199.967 50.9804 198.287 56.5557H197.979C196.291 50.9804 196.374 45.211 196.898 39.4959C197.089 35.2251 197.364 30.9544 197.671 26.6836H191.4C191.708 30.9544 191.982 35.2251 192.182 39.4959C192.698 45.211 192.781 50.9804 191.092 56.5557H190.785C189.096 50.9726 189.18 45.211 189.695 39.4959C189.886 35.2251 190.161 30.9544 190.477 26.6836H184.206C184.514 30.9544 184.788 35.2251 184.979 39.4959C185.495 45.211 185.578 50.9804 183.898 56.5557H183.59C181.902 50.9726 181.985 45.211 182.509 39.4959C182.7 35.2251 182.975 30.9544 183.283 26.6836H180.413C178.284 26.6836 176.554 28.2987 176.554 30.2866V55.655C176.554 57.6428 178.284 59.2579 180.413 59.2579H237.452C239.581 59.2579 241.311 57.6428 241.311 55.655V30.2866C241.311 28.2987 239.581 26.6836 237.452 26.6836H237.385Z" fill="#FAF7F5"/>
<path d="M225.9 27.849H186.644C180.356 27.849 175.241 23.0735 175.241 17.2032C175.241 10.0671 181.462 4.25884 189.106 4.25884H223.647C229.427 4.25884 235.182 2.90772 240.272 0.345256C241.237 -0.136176 242.377 -0.112881 243.316 0.407377C244.256 0.935399 244.822 1.85944 244.822 2.87666V10.1913C244.822 17.5371 239.865 24.1917 232.496 26.7464C230.383 27.4763 228.163 27.849 225.909 27.849H225.9ZM189.097 6.58835C182.826 6.58835 177.728 11.3483 177.728 17.2032C177.728 21.7923 181.728 25.5195 186.635 25.5195H225.892C227.847 25.5195 229.776 25.1934 231.606 24.5567C238.01 22.3358 242.31 16.5587 242.31 10.1836V2.87666C242.31 2.60488 242.127 2.46511 242.027 2.40299C241.919 2.34087 241.703 2.26322 241.445 2.38746C235.989 5.12852 229.834 6.58058 223.638 6.58058H189.097V6.58835Z" fill="#FAF7F5"/>
</svg>
